<?xml version="1.0" standalone="no"?>
<!DOCTYPE svg PUBLIC "-//W3C//DTD SVG 20010904//EN"
 "http://www.w3.org/TR/2001/REC-SVG-20010904/DTD/svg10.dtd">
<svg version="1.0" xmlns="http://www.w3.org/2000/svg"
 width="700.000000pt" height="700.000000pt" viewBox="0 0 700.000000 700.000000"
 preserveAspectRatio="xMidYMid meet">
<metadata>
Created by potrace 1.14, written by Peter Selinger 2001-2017
</metadata>
<g transform="translate(0.000000,700.000000) scale(0.100000,-0.100000)"
fill="#000000" stroke="none">
<path d="M3248 5113 c-10 -2 -18 -6 -18 -8 0 -2 20 -47 45 -101 25 -53 44 -99
42 -101 -2 -2 -57 -13 -122 -25 l-118 -21 -19 24 c-57 75 -80 97 -104 103 -14
4 -29 5 -31 2 -3 -3 7 -42 23 -88 15 -46 28 -94 29 -108 0 -14 6 -24 12 -23 6
1 104 12 217 24 l208 22 44 -44 44 -43 97 47 c106 50 132 57 300 81 123 18
208 44 255 77 28 20 29 23 13 35 -28 21 -151 37 -223 29 -37 -3 -111 -16 -166
-27 -58 -11 -113 -17 -133 -13 -18 3 -98 39 -176 79 -141 72 -185 88 -219 79z"/>
<path d="M2545 4735 c-1249 -119 -2046 -340 -2329 -646 -76 -82 -101 -137
-101 -224 0 -54 6 -82 27 -126 53 -115 219 -259 428 -372 85 -46 264 -126 245
-110 -5 5 -43 35 -83 68 -106 84 -187 178 -229 262 -69 139 -45 261 78 388
251 262 889 486 2099 735 277 58 254 62 -135 25z"/>
<path d="M2145 4468 c-3 -13 -84 -417 -181 -898 -96 -481 -177 -883 -180 -892
-5 -17 32 -18 674 -18 l679 0 -33 193 c-19 105 -37 209 -40 230 l-7 37 -298 0
c-177 0 -299 4 -299 9 0 5 61 311 135 678 74 368 135 672 135 676 0 4 -130 7
-290 7 l-290 0 -5 -22z"/>
<path d="M3034 4463 c3 -16 73 -415 156 -888 83 -473 153 -872 156 -887 l6
-28 432 0 432 0 313 665 c173 366 315 664 317 662 2 -2 24 -287 49 -633 25
-346 48 -644 51 -662 l5 -32 431 2 430 3 534 905 c294 498 534 908 534 913 0
4 -131 6 -292 5 l-292 -3 -385 -687 -385 -688 -53 0 c-29 0 -53 4 -53 8 0 5
-31 314 -70 687 -38 373 -70 680 -70 682 0 2 -151 2 -336 1 l-337 -3 -346
-687 -346 -687 -52 -1 c-29 0 -53 3 -53 8 0 4 -47 308 -105 677 -58 368 -105
675 -105 682 0 10 -59 13 -286 13 l-286 0 6 -27z"/>
<path d="M1685 4414 c-66 -19 -190 -57 -276 -85 l-156 -51 -98 -486 c-53 -268
-106 -510 -116 -538 -37 -98 -102 -129 -309 -146 l-136 -12 -44 -220 c-24
-122 -45 -227 -48 -235 -5 -12 27 -13 209 -8 399 12 560 56 695 191 76 76 131
185 173 346 25 95 261 1244 261 1272 0 13 -29 8 -155 -28z"/>
<path d="M586 2155 c-102 -140 -186 -257 -186 -260 0 -3 39 -5 88 -5 l87 0 28
45 29 45 173 0 172 0 13 -45 13 -45 89 0 c68 0 89 3 86 13 -3 6 -40 123 -84
260 l-78 247 -122 0 -122 0 -186 -255z m325 45 c15 -47 28 -91 28 -97 1 -10
-27 -13 -109 -13 -60 0 -110 3 -110 6 0 3 30 49 67 100 42 60 72 94 82 92 10
-2 26 -35 42 -88z"/>
<path d="M1354 2393 c3 -10 35 -119 71 -243 36 -124 68 -233 71 -242 5 -16 20
-18 127 -18 l122 0 77 113 c42 61 122 179 178 260 l101 148 -87 -3 -87 -3
-131 -192 c-78 -114 -138 -193 -147 -193 -13 0 -29 44 -71 193 l-55 192 -87 3
c-80 3 -87 1 -82 -15z"/>
<path d="M2295 2398 c-2 -7 -26 -124 -53 -260 l-49 -248 83 0 c46 0 84 1 84 3
0 2 23 115 50 252 28 137 50 252 50 257 0 14 -160 10 -165 -4z"/>
<path d="M2746 2155 c-102 -140 -186 -257 -186 -260 0 -3 39 -5 88 -5 l87 0
30 45 30 45 171 0 171 0 13 -45 13 -45 89 0 c68 0 89 3 86 13 -3 6 -40 123
-84 260 l-78 247 -122 0 -122 0 -186 -255z m325 45 c15 -47 28 -91 28 -97 1
-10 -27 -13 -109 -13 -60 0 -110 2 -110 5 0 3 30 49 67 101 42 60 72 94 82 92
10 -2 26 -35 42 -88z"/>
<path d="M3535 2398 c-5 -16 -24 -100 -25 -110 0 -5 49 -8 108 -8 60 0 111 -2
114 -5 4 -4 -45 -268 -67 -362 -5 -22 -3 -23 78 -23 l84 0 39 193 39 192 116
3 117 3 6 42 c4 23 9 52 13 65 l5 22 -311 0 c-240 0 -313 -3 -316 -12z"/>
<path d="M4365 2388 c-3 -13 -27 -130 -54 -260 l-48 -238 83 0 c46 0 84 1 84
3 0 2 23 115 50 252 28 137 50 252 50 257 0 4 -36 8 -80 8 -74 0 -80 -1 -85
-22z"/>
<path d="M4859 2401 c-70 -22 -102 -68 -132 -191 -30 -124 -41 -227 -27 -261
25 -59 49 -64 310 -64 321 0 344 9 389 160 28 92 52 256 42 291 -4 15 -20 37
-35 48 -26 20 -42 21 -274 23 -136 1 -259 -2 -273 -6z m402 -142 c23 -23 21
-55 -7 -156 -22 -79 -32 -83 -211 -83 -195 0 -201 5 -169 141 17 71 32 98 59
109 12 5 86 9 165 9 131 1 144 -1 163 -20z"/>
<path d="M5710 2407 c0 -2 -22 -115 -50 -252 -27 -137 -50 -252 -50 -257 0 -4
35 -8 78 -8 l78 0 37 192 c35 181 42 207 51 197 2 -2 47 -91 100 -196 l96
-193 139 0 138 0 47 238 c26 130 50 247 53 260 5 21 3 22 -75 22 l-80 0 -10
-47 c-6 -27 -23 -114 -38 -195 -15 -82 -31 -148 -36 -148 -4 0 -52 88 -105
195 l-98 195 -137 0 c-76 0 -138 -1 -138 -3z"/>
</g>
</svg>
